<svg width="170" height="64" viewBox="0 0 170 64" fill="none" xmlns="http://www.w3.org/2000/svg">
<path d="M157.889 20.5316C156.454 20.5018 155.028 20.7707 153.703 21.321C153.326 21.1562 152.918 21.0717 152.507 21.0728H144.833C144.04 21.0728 143.28 21.3879 142.719 21.9487C142.158 22.5095 141.843 23.2701 141.843 24.0632V25.4178C139.385 22.3557 135.563 20.5316 130.937 20.5316C126.269 20.5316 122.409 22.3976 119.954 25.5165V16.073C119.954 15.2799 119.639 14.5193 119.078 13.9585C118.517 13.3977 117.757 13.0827 116.964 13.0827H108.624C107.83 13.0827 107.07 13.3977 106.509 13.9585C105.948 14.5193 105.633 15.2799 105.633 16.073V25.6421C103.465 22.583 99.8409 21.0728 94.7275 21.0728H88.3969C87.6038 21.0728 86.8433 21.3879 86.2825 21.9487C85.7217 22.5095 85.4066 23.2701 85.4066 24.0632V29.1856C84.7014 28.0788 83.7737 27.1307 82.6824 26.4016C82.4193 26.2252 82.1471 26.0607 81.8601 25.9052L84.8504 20.4389C85.1751 19.8374 85.2839 19.1428 85.1588 18.4709C85.0337 17.7989 84.6821 17.1901 84.1626 16.7458C81.3248 14.3237 77.2849 13.0976 72.1445 13.0976C63.0958 13.0976 59.4835 16.686 58.09 20.0352C57.8397 18.979 57.3823 17.9829 56.7443 17.1047L50.4646 8.43272C49.6978 7.38157 48.6936 6.52632 47.5338 5.93654C46.374 5.34677 45.0914 5.03915 43.7902 5.0387C42.6239 5.03626 41.4706 5.28406 40.4082 5.76535C40.3182 5.62479 40.2183 5.49087 40.1091 5.36465C40.1091 5.27494 40.1091 5.18822 40.1091 5.09851C40.0813 4.39695 39.8074 3.72756 39.3356 3.20762C38.8638 2.68768 38.2241 2.35034 37.5285 2.25471C37.3927 2.23691 37.2558 2.22792 37.1188 2.22779C37.05 2.22779 36.9842 2.22779 36.9185 2.22779C36.555 1.91499 36.1215 1.69419 35.6548 1.58404C35.1881 1.47389 34.7017 1.47761 34.2367 1.59488C33.7717 1.71216 33.3417 1.93956 32.983 2.25789C32.6243 2.57622 32.3475 2.97614 32.1758 3.42393C31.9964 3.88145 31.0245 4.95796 28.5007 6.14512C27.4741 6.38906 26.4729 6.72948 25.5104 7.16183C23.8675 5.80444 21.763 5.13564 19.638 5.29564C17.5129 5.45563 15.5323 6.43198 14.1112 8.02006L7.00323 16.0042C5.55474 17.6351 4.81188 19.7737 4.93743 21.9514C5.06299 24.129 6.04673 26.1681 7.67306 27.6217L9.63472 29.371C9.75732 29.4816 9.88291 29.5863 10.0115 29.688C9.66166 30.7604 9.54742 31.8956 9.67658 33.0162C9.26398 33.3052 8.93108 33.6937 8.70876 34.1457C8.48644 34.5978 8.38192 35.0986 8.40488 35.6018C8.42785 36.1051 8.57757 36.5943 8.84014 37.0242C9.10271 37.4541 9.46963 37.8107 9.90684 38.0609L13.6866 40.2229C12.7028 40.2839 11.7364 40.5104 10.8279 40.8927C7.97508 42.0889 6.13902 44.9237 6.28854 47.8632C6.04632 48.0336 5.74131 48.216 5.42134 48.4044L4.99971 48.6556C4.20949 49.0981 3.59335 49.7962 3.2526 50.6354C2.91185 51.4745 2.86677 52.4045 3.12477 53.2727C3.77966 55.7487 5.8669 55.8743 6.27658 55.8743C6.81977 55.8671 7.35473 55.7405 7.84351 55.5035L8.57315 55.1596C9.07851 54.9203 9.55398 54.6931 9.99056 54.5346L10.1879 54.4688C11.6173 55.4178 13.2956 55.9224 15.0113 55.9191C15.2745 55.9191 15.5406 55.9191 15.8068 55.8832C16.3977 55.8367 16.9832 55.7366 17.5561 55.5842L20.1906 58.5057C20.6667 59.0345 21.3157 59.3761 22.0211 59.4693C22.7265 59.5625 23.442 59.4011 24.0391 59.0141L32.7978 53.3325L40.1151 58.8825C40.6633 59.298 41.338 59.5117 42.0254 59.4877C42.7128 59.4638 43.371 59.2036 43.8889 58.751L46.8284 56.1853C47.4044 56.6962 48.1281 57.0104 48.8947 57.0824C49.0173 57.0824 49.1369 57.1003 49.2565 57.1003C49.805 57.1017 50.3466 56.9793 50.8411 56.7422C51.3356 56.505 51.7701 56.1593 52.1123 55.7307C53.1378 55.4598 54.1075 55.0103 54.977 54.403L55.0069 54.3851C55.1678 54.2988 55.3209 54.1987 55.4645 54.086C56.731 53.0369 57.6679 51.6445 58.1628 50.0761C58.6577 48.5076 58.6895 46.8297 58.2544 45.2436C58.168 44.9294 58.0621 44.6208 57.9375 44.3196C57.883 44.1842 57.818 44.0532 57.7431 43.9279C56.9071 42.5101 55.6391 41.3972 54.1248 40.7522C53.2681 40.39 52.36 40.164 51.4335 40.0823L54.9262 38.0908C55.3635 37.8415 55.7308 37.4858 55.994 37.0568C56.2572 36.6278 56.4079 36.1392 56.4321 35.6365C56.4562 35.1337 56.3531 34.633 56.1322 34.1807C55.9113 33.7284 55.5798 33.3392 55.1684 33.0491C55.3537 31.6567 55.1552 30.2402 54.5943 28.9523C54.5943 28.9165 54.5614 28.8806 54.5434 28.8447L54.9053 28.5845C55.9215 27.8483 56.7553 26.8887 57.3424 25.7796C57.4884 27.1777 57.9323 28.5283 58.6441 29.7405C59.356 30.9526 60.3192 31.9982 61.469 32.8069L57.6833 36.183C57.1784 36.6343 56.8416 37.2436 56.728 37.9112C56.6145 38.5788 56.7309 39.2652 57.0583 39.8581C57.9708 41.5707 59.2316 43.0735 60.7596 44.2699C62.2876 45.4662 64.049 46.3296 65.9306 46.8046C66.3404 47.0744 66.8034 47.2528 67.2882 47.3279C67.1387 47.7406 66.9892 48.1951 66.8277 48.6855C66.5945 48.6556 66.3702 48.6227 66.1549 48.5809C65.9808 48.5493 65.809 48.5063 65.6405 48.4523L65.4791 48.4074C65.1955 48.3361 64.9043 48.3 64.6119 48.2998C63.9722 48.2992 63.3448 48.4763 62.7997 48.8111C62.3094 49.1166 61.9032 49.5399 61.6181 50.0424C61.333 50.545 61.178 51.1108 61.1673 51.6885C61.1566 52.2661 61.2905 52.8373 61.5568 53.3501C61.8231 53.8628 62.2134 54.3008 62.6921 54.6243C63.2112 54.9724 63.7965 55.2096 64.4115 55.321C64.7916 55.3924 65.1764 55.4354 65.5628 55.4496L66.11 55.4646C66.4958 55.4885 66.8815 55.5035 67.2613 55.5064C67.3092 55.5752 67.357 55.644 67.4078 55.7098L67.4407 55.7546C67.7476 56.1622 68.139 56.4985 68.588 56.7406C69.0371 56.9827 69.5332 57.1248 70.0423 57.1571C70.1171 57.1571 70.1918 57.1571 70.2636 57.1571C70.9769 57.1606 71.6751 56.9524 72.2701 56.559C72.95 56.1078 73.4439 55.426 73.6606 54.6393C75.712 54.0244 77.6595 53.1051 79.4379 51.9121C79.6831 51.7506 79.9253 51.5802 80.1616 51.4067L80.2961 51.5024C80.6023 51.7042 80.9398 51.8537 81.2949 51.945C81.7329 52.7485 82.4294 53.3807 83.2715 53.7392H83.3014C83.8991 54.0011 84.5448 54.1355 85.1973 54.1339C85.3791 54.1342 85.5608 54.1242 85.7415 54.104C86.3731 54.0334 86.9897 53.8639 87.5686 53.6016C88.0511 53.3804 88.51 53.1109 88.9382 52.7972L89.1445 52.6447C89.4297 52.6866 89.7175 52.7076 90.0057 52.7075C90.4771 52.7057 90.9473 52.6627 91.4112 52.5789L91.7341 52.5131C91.9188 52.6822 92.119 52.8334 92.3322 52.9647C92.1857 53.174 92.0332 53.3833 91.8956 53.5956C91.2956 54.4888 90.782 55.437 90.3616 56.4275C90.2582 56.6699 90.1674 56.9174 90.0895 57.1691C89.976 57.5273 89.893 57.8944 89.8413 58.2665C89.7433 58.9467 89.8216 59.6407 90.0685 60.282C90.2907 60.8487 90.6579 61.347 91.1335 61.727C91.609 62.107 92.176 62.3553 92.7778 62.447L92.9452 62.4709C93.0823 62.4854 93.2201 62.4923 93.3579 62.4919C94.0246 62.4919 94.6788 62.311 95.2508 61.9685C95.7275 61.6815 96.1423 61.3023 96.4708 60.8532C96.657 60.5999 96.824 60.333 96.9702 60.0547C97.0629 59.8813 97.1377 59.7318 97.2005 59.6092L97.2393 59.5314C97.5144 58.9334 97.7746 58.3353 98.0108 57.7163C98.2102 57.19 98.4145 56.6707 98.6238 56.1583L99.1591 54.9263C99.3894 54.6273 99.6406 54.3283 99.9007 54.0621C100.161 53.796 100.499 53.4641 100.822 53.165L101.01 53.3444C101.815 54.0835 102.869 54.4924 103.962 54.4897C104.856 54.4889 105.741 54.3111 106.566 53.9664C107.086 53.7481 107.637 53.4999 108.199 53.2278C108.241 53.2099 108.282 53.1889 108.321 53.165C108.731 52.9467 109.141 52.7284 109.556 52.5191C109.972 52.3098 110.322 52.1363 110.705 51.9599L111.049 51.8164C111.66 51.5678 112.184 51.1426 112.552 50.595C112.921 50.0474 113.118 49.4024 113.118 48.7423C113.118 48.0983 112.934 47.4676 112.589 46.9242H115.983C115.86 47.1365 115.74 47.3518 115.633 47.5731C115.346 48.1597 115.117 48.7726 114.948 49.4032C114.766 50.0861 114.674 50.7897 114.673 51.4964C114.675 52.265 114.796 53.0286 115.032 53.7601V53.79C115.444 55.0698 116.234 56.1948 117.298 57.0166C118.343 57.8298 119.608 58.3092 120.929 58.3921C121.165 58.4101 121.404 58.419 121.637 58.419C122.77 58.4197 123.893 58.2171 124.954 57.821C126.177 57.367 127.312 56.7043 128.309 55.8623C129.294 55.0321 130.136 54.045 130.8 52.9407L130.857 52.848C131.312 53.2475 131.86 53.5261 132.45 53.6584C132.805 53.7391 133.167 53.7793 133.53 53.778C133.992 53.7753 134.452 53.7161 134.9 53.6016C135.432 53.4636 135.953 53.2877 136.46 53.0753L137.295 52.7284L138.099 52.4294C138.375 52.7972 138.714 53.1131 139.101 53.3624C139.815 53.8179 140.646 54.0578 141.493 54.0531C141.577 54.0531 141.664 54.0531 141.75 54.0531H141.885C142.417 53.9985 142.939 53.8675 143.434 53.6644L143.652 53.7601L143.721 53.787C144.232 53.9856 144.776 54.087 145.324 54.086C145.53 54.0854 145.736 54.0714 145.94 54.0442C146.408 53.9827 146.87 53.8765 147.318 53.7272C147.716 53.5954 148.104 53.4356 148.479 53.2488C148.67 53.1531 148.843 53.0723 148.993 53.0095L149.983 52.5729C150.309 52.4294 150.632 52.2739 150.958 52.1274H150.979L151.053 52.0975C151.245 52.0257 151.439 51.948 151.63 51.8642C151.866 51.7599 152.091 51.6338 152.303 51.4874C152.391 51.4496 152.475 51.4077 152.554 51.3619L152.722 51.2632C152.841 51.5819 153.002 51.8835 153.2 52.1603C153.548 52.662 154.013 53.071 154.555 53.352C155.097 53.6329 155.7 53.7771 156.31 53.7721C156.95 53.769 157.585 53.6578 158.188 53.4431C158.646 53.2779 159.091 53.078 159.519 52.8451L160.156 52.4952L161.038 52.0975L161.122 52.0706C161.402 51.9773 161.673 51.8592 161.932 51.7177C162.222 51.5588 162.494 51.3682 162.742 51.1495C163.096 50.8394 163.379 50.4577 163.574 50.0299C163.769 49.602 163.871 49.1377 163.873 48.6676C163.876 48.0574 163.716 47.4575 163.409 46.9302H163.983C164.777 46.9302 165.537 46.6151 166.098 46.0543C166.659 45.4935 166.974 44.7329 166.974 43.9399V30.0857C166.971 23.5219 162.261 20.5316 157.889 20.5316ZM15.4778 48.4433C15.3633 48.4712 15.2458 48.4852 15.1279 48.4852C14.8556 48.4834 14.5878 48.4146 14.3484 48.2847C14.109 48.1549 13.9053 47.9679 13.7554 47.7406C13.9014 47.6697 14.0628 47.6368 14.2249 47.6449C14.5564 47.6447 14.8811 47.7391 15.1608 47.917C15.4898 48.1353 15.5914 48.2818 15.6243 48.3745C15.5778 48.4021 15.5288 48.4252 15.4778 48.4433ZM49.729 48.545C49.6009 48.546 49.4731 48.5299 49.3492 48.4971C49.269 48.4773 49.1923 48.445 49.122 48.4014C49.122 48.2968 49.2057 48.1174 49.6453 47.8273C49.9435 47.6356 50.2896 47.532 50.6441 47.5283C50.8359 47.5144 51.0275 47.5581 51.1943 47.6539L51.2302 47.6867C51.0732 47.9444 50.8527 48.1575 50.5899 48.3056C50.3271 48.4538 50.0307 48.5321 49.729 48.533V48.545ZM119.954 42.9949V42.7617C119.999 42.8125 120.041 42.8693 120.085 42.9202L119.954 42.9949ZM122.52 51.3678L122.439 51.3918C122.245 51.4574 122.044 51.4985 121.841 51.5144C121.799 51.5173 121.757 51.5173 121.715 51.5144C121.647 51.5149 121.579 51.5089 121.512 51.4964C121.513 51.4875 121.513 51.4784 121.512 51.4695C121.483 51.4139 121.467 51.3526 121.464 51.2901C121.455 51.135 121.471 50.9794 121.512 50.8296C121.573 50.6039 121.662 50.3869 121.778 50.1837C121.912 49.9437 122.069 49.7165 122.244 49.5049C122.306 49.4351 122.375 49.3663 122.451 49.2985C122.514 49.6192 122.627 49.9279 122.786 50.2136C122.944 50.5102 123.145 50.7814 123.384 51.018C123.108 51.1637 122.819 51.2819 122.52 51.3708V51.3678Z" fill="white"/>
<path d="M40.7263 9.00614L38.5982 10.5489C36.2555 12.2472 35.7332 15.523 37.4314 17.8656L43.7166 26.5354C45.4149 28.8781 48.6907 29.4004 51.0333 27.7021L53.1614 26.1594C55.504 24.4611 56.0264 21.1853 54.3281 18.8427L48.043 10.1728C46.3447 7.83022 43.0689 7.30786 40.7263 9.00614Z" fill="#321F23"/>
<path d="M25.7217 11.3214L23.7595 9.57247C21.5994 7.64728 18.2877 7.83765 16.3625 9.99768L9.23761 17.9917C7.31242 20.1517 7.50279 23.4634 9.66282 25.3886L11.625 27.1375C13.7851 29.0627 17.0968 28.8723 19.022 26.7123L26.1469 18.7183C28.0721 16.5583 27.8817 13.2466 25.7217 11.3214Z" fill="#321F23"/>
<path d="M36.9185 9.41054C37.3727 8.77774 37.6885 8.05637 37.8455 7.29339C37.4181 8.08618 36.7501 8.7228 35.9376 9.11151L35.5848 9.02778C36.0957 8.53471 36.4972 7.93961 36.763 7.28119C37.0289 6.62276 37.1532 5.91576 37.1278 5.20614C36.5297 7.05117 35.2379 8.0619 34.0089 8.75267C33.6799 8.71679 33.348 8.68987 33.0131 8.67492C33.9928 7.45403 34.6692 6.0183 34.9867 4.48547C34.2212 6.48002 31.6046 8.02303 29.4935 8.97096C26.3834 9.65167 23.5986 11.3731 21.5994 13.8508C19.6002 16.3285 18.5061 19.4142 18.498 22.5979V46.066L19.3533 48.5539L18.498 50.3481L32.433 45.8148L46.3709 50.3481L45.4738 48.5539L46.3709 45.6922V22.5979C46.3614 19.69 45.446 16.8573 43.7519 14.4938C42.0578 12.1303 39.6692 10.3535 36.9185 9.41054Z" fill="url(#paint0_linear_41_246)"/>
<path d="M25.4566 23.1123C26.0759 23.1123 26.578 22.6102 26.578 21.9909C26.578 21.3716 26.0759 20.8695 25.4566 20.8695C24.8373 20.8695 24.3352 21.3716 24.3352 21.9909C24.3352 22.6102 24.8373 23.1123 25.4566 23.1123Z" fill="#321F23"/>
<path d="M37.9803 23.1123C38.5996 23.1123 39.1016 22.6102 39.1016 21.9909C39.1016 21.3716 38.5996 20.8695 37.9803 20.8695C37.3609 20.8695 36.8589 21.3716 36.8589 21.9909C36.8589 22.6102 37.3609 23.1123 37.9803 23.1123Z" fill="#321F23"/>
<path d="M32.3523 32.6304C31.7898 32.0359 31.1641 31.5045 30.4864 31.0455C29.9194 30.6663 29.4551 30.1526 29.1348 29.5504C28.9668 29.2208 28.8828 28.8549 28.8901 28.4851C28.8974 28.1152 28.9958 27.7529 29.1766 27.4302C29.2979 27.1899 29.4751 26.9821 29.6933 26.8244C29.9114 26.6667 30.1643 26.5636 30.4305 26.5237C30.6968 26.4839 30.9687 26.5085 31.2235 26.5955C31.4783 26.6824 31.7085 26.8292 31.8948 27.0236C32.0742 27.2 32.2238 27.4093 32.3882 27.6037C32.5258 27.4332 32.6544 27.2448 32.8129 27.0834C33.0086 26.8604 33.2593 26.6925 33.5401 26.5965C33.8209 26.5006 34.1219 26.4798 34.4132 26.5364C34.7045 26.593 34.9759 26.7249 35.2003 26.9189C35.4248 27.113 35.5945 27.3625 35.6925 27.6426C35.8779 28.0699 35.9291 28.5435 35.8394 29.0005C35.7497 29.4576 35.5233 29.8767 35.1902 30.2023C34.6912 30.6818 34.1651 31.1321 33.6143 31.5509C33.1926 31.9038 32.78 32.2626 32.3523 32.6304Z" fill="#321F23"/>
<path d="M32.5737 32.3105H32.2V37.7738H32.5737V32.3105Z" fill="#321F23"/>
<path d="M29.2634 39.3587C29.0878 39.3589 28.9127 39.3429 28.7401 39.3108C27.825 39.1314 27.0894 38.4765 26.5571 37.3611L26.895 37.1996C27.3735 38.2014 28.0194 38.7875 28.8118 38.943C30.4535 39.266 32.2417 37.6512 32.2597 37.6362L32.5139 37.9113C32.4421 37.9771 30.9081 39.3587 29.2634 39.3587Z" fill="#321F23"/>
<path d="M35.6057 39.3587C33.958 39.3587 32.427 37.9771 32.3552 37.9113L32.6094 37.6362C32.6094 37.6362 34.4036 39.263 36.0573 38.943C36.8497 38.7875 37.4956 38.2014 37.974 37.1996L38.312 37.3611C37.7767 38.4765 37.0441 39.1314 36.129 39.3108C35.9564 39.3429 35.7812 39.3589 35.6057 39.3587Z" fill="#321F23"/>
<path d="M37.0801 32.3673C37.0801 32.3673 39.6637 30.8721 44.526 34.7595C47.2532 36.9365 50.5635 35.9168 51.6609 34.3618C52.5939 33.0401 53.0514 27.7412 47.8572 28.5606C45.3005 28.9733 45.7161 32.768 48.1174 33.0461C47.2203 31.9905 46.4308 31.2758 48.0277 30.5103C49.6245 29.7448 51.0778 33.5754 48.7603 34.1435C46.4428 34.7117 45.4709 33.997 43.6379 32.5258C41.8048 31.0545 38.1267 31.6436 37.0801 32.3673Z" fill="#321F23"/>
<path d="M27.7862 32.0922C27.7862 32.0922 25.1487 30.6987 20.433 34.7566C17.7865 37.0352 14.4523 36.1351 13.2861 34.622C12.3083 33.3361 11.6564 28.0433 16.8745 28.6862C19.4372 29.0062 19.1711 32.8128 16.7818 33.1926C17.6251 32.1071 18.4026 31.3625 16.7818 30.6538C15.161 29.9451 13.8453 33.8295 16.1837 34.314C18.5222 34.7984 19.4551 34.0478 21.2464 32.5198C23.0376 30.9917 26.7216 31.3984 27.7862 32.0922Z" fill="#321F23"/>
<path d="M55.3718 46.0151C55.317 45.8116 55.2491 45.6118 55.1685 45.4171C54.657 44.5577 53.8836 43.8848 52.9616 43.4973C51.6751 42.9672 50.2483 42.8826 48.9082 43.257C47.5682 43.6315 46.3918 44.4434 45.5665 45.5636C45.2169 46.1336 44.9091 46.7283 44.6455 47.3429L42.8184 46.8166C42.8184 46.8345 40.8298 46.2873 39.8281 45.9912C38.612 45.6384 37.3979 45.2815 36.1859 44.9207L33.8684 43.4853L11.3931 35.4653L27.4721 44.6605L34.1046 46.8435H34.0807L34.1764 46.8764C37.2106 47.7794 40.2427 48.6885 43.2729 49.6035C43.2729 49.6035 44.2059 49.9026 44.6754 50.0521C44.8321 50.0963 44.9671 50.1963 45.0552 50.3332C45.8357 51.8523 47.0946 52.6208 48.6436 52.8959L48.5987 53.3534C48.5901 53.4406 48.5987 53.5286 48.6241 53.6125C48.6495 53.6963 48.6911 53.7743 48.7466 53.8421C48.8022 53.9098 48.8705 53.966 48.9477 54.0073C49.025 54.0487 49.1096 54.0744 49.1968 54.083C49.284 54.0917 49.372 54.0831 49.4558 54.0577C49.5397 54.0323 49.6177 53.9907 49.6855 53.9351C49.7532 53.8796 49.8094 53.8113 49.8507 53.734C49.8921 53.6568 49.9178 53.5722 49.9264 53.485L49.9743 53.0035C51.1862 52.9796 52.362 52.5863 53.3444 51.8762C53.4155 51.8289 53.4894 51.7859 53.5656 51.7476C54.3862 51.0671 54.9931 50.1643 55.3135 49.1475C55.6338 48.1307 55.6541 47.0431 55.3718 46.0151ZM32.421 45.3214C32.289 45.322 32.1598 45.2834 32.0498 45.2105C31.9397 45.1375 31.8538 45.0336 31.8028 44.9118C31.7519 44.79 31.7383 44.6558 31.7637 44.5263C31.7891 44.3967 31.8523 44.2776 31.9455 44.1841C32.0386 44.0905 32.1574 44.0267 32.2869 44.0007C32.4163 43.9748 32.5505 43.9878 32.6725 44.0382C32.7946 44.0886 32.8989 44.174 32.9723 44.2838C33.0457 44.3935 33.0849 44.5225 33.0849 44.6545C33.0849 44.8309 33.0151 45 32.8906 45.125C32.7662 45.25 32.5974 45.3206 32.421 45.3214ZM53.9275 48.9845C53.4357 49.9269 52.6402 50.6758 51.6699 51.11C50.6996 51.5441 49.6112 51.6381 48.5808 51.3768C47.0109 50.9611 46.0151 49.7022 46.1377 48.1951C46.2393 46.9242 46.963 46.0062 47.9977 45.3214C49.5556 44.2927 51.8372 44.2329 53.1769 45.4201C53.6872 45.8414 54.0394 46.4235 54.1757 47.071C54.3121 47.7186 54.2245 48.3932 53.9275 48.9845Z" fill="#321F23"/>
<path d="M53.455 35.4922L30.9887 43.5063L28.6712 44.9386C27.4611 45.2975 26.247 45.6533 25.029 46.0062L20.0949 47.4236C19.837 46.8242 19.5372 46.2436 19.1978 45.6862C18.3952 44.5915 17.2492 43.7971 15.9425 43.4297C14.6358 43.0622 13.2437 43.1429 11.9881 43.6588C10.2747 44.3794 9.1264 46.075 9.29685 47.8452C9.35106 48.2717 9.29006 48.7049 9.12021 49.0998C8.95035 49.4948 8.67784 49.837 8.33098 50.091C7.76785 50.5087 7.17744 50.8883 6.56369 51.2273C6.32495 51.3327 6.13607 51.5262 6.03637 51.7673C5.93666 52.0085 5.93382 52.2789 6.02843 52.5221C6.13907 52.9407 6.21981 52.9766 6.62649 52.7972C7.41893 52.4354 8.19043 52.0287 9.01875 51.7356C9.88296 51.4366 10.783 51.2213 11.6413 51.8283C12.773 52.6437 14.1602 53.0248 15.5496 52.9019C17.3438 52.7434 18.8121 52.0048 19.6763 50.3272C19.7629 50.1946 19.8946 50.098 20.0471 50.0551C23.5816 48.9945 27.1182 47.9389 30.6568 46.8883L30.7524 46.8584L30.7315 46.8405L37.379 44.6665L53.455 35.4922ZM16.2404 51.32C15.2365 51.5716 14.1771 51.4777 13.2331 51.0534C12.2891 50.6292 11.5156 49.8993 11.0372 48.9816C10.7484 48.4046 10.6639 47.7468 10.7975 47.1156C10.9311 46.4844 11.275 45.9172 11.7728 45.5068C13.0826 44.3525 15.3044 44.4183 16.8205 45.4231C17.8253 46.0899 18.531 46.987 18.6147 48.225C18.7433 49.6933 17.7714 50.9163 16.2404 51.32ZM32.4211 45.3214C32.289 45.322 32.1598 45.2834 32.0498 45.2105C31.9397 45.1375 31.8538 45.0336 31.8028 44.9118C31.7519 44.79 31.7383 44.6558 31.7637 44.5263C31.7891 44.3967 31.8523 44.2776 31.9455 44.1841C32.0386 44.0905 32.1574 44.0267 32.2869 44.0007C32.4163 43.9748 32.5505 43.9878 32.6726 44.0382C32.7946 44.0886 32.8989 44.174 32.9723 44.2838C33.0457 44.3935 33.0849 44.5225 33.0849 44.6545C33.0849 44.8309 33.0151 45.0001 32.8906 45.125C32.7662 45.25 32.5974 45.3206 32.4211 45.3214Z" fill="#321F23"/>
<path d="M22.4124 56.4903L18.22 51.8403L19.0543 51.0897L22.6038 55.028L32.5795 48.5539L33.1895 49.4959L22.4124 56.4903Z" fill="#321F23"/>
<path d="M41.9243 56.4813L29.3679 46.9601L30.0467 46.066L41.8735 55.034L46.3769 51.1017L47.1155 51.945L41.9243 56.4813Z" fill="#321F23"/>
<path d="M22.7294 53.5208C23.2975 53.5208 23.758 53.0603 23.758 52.4922C23.758 51.924 23.2975 51.4635 22.7294 51.4635C22.1612 51.4635 21.7007 51.924 21.7007 52.4922C21.7007 53.0603 22.1612 53.5208 22.7294 53.5208Z" fill="#321F23"/>
<path d="M41.3114 53.5208C41.8795 53.5208 42.3401 53.0603 42.3401 52.4922C42.3401 51.924 41.8795 51.4635 41.3114 51.4635C40.7433 51.4635 40.2827 51.924 40.2827 52.4922C40.2827 53.0603 40.7433 53.5208 41.3114 53.5208Z" fill="#321F23"/>
<path d="M78.5948 25.645C76.7797 24.3323 74.54 23.7163 72.07 23.7163C71.451 23.7163 70.216 23.7551 70.216 24.8347C70.216 26.0697 71.8756 26.3298 73.8462 26.6887C77.7067 27.3824 79.6355 27.9625 81.023 28.8895C83.2628 30.3847 83.9954 32.7112 83.9954 35.1034C83.9954 41.9363 77.9729 44.4841 71.4091 44.4841C66.6993 44.4841 62.3006 43.1713 59.675 38.4257L65.4254 33.2913C66.7771 35.2201 69.1693 36.2996 71.5646 36.2996C72.7607 36.2996 74.229 36.0304 74.229 34.9509C74.229 34.2931 73.6877 33.8296 72.4527 33.4558C70.3595 32.8009 66.8937 32.4899 64.1516 30.9858C61.8759 29.7119 60.2641 27.6964 60.2641 24.3442C60.2641 17.936 66.0953 16.085 72.1567 16.085C75.1679 16.085 79.3335 16.5485 82.2311 19.0185L78.5948 25.645Z" fill="url(#paint1_linear_41_246)"/>
<path d="M98.1634 43.9578L97.7388 42.1038C96.4649 43.9189 94.3418 44.4961 92.105 44.4961C87.9724 44.4961 85.7715 41.5237 85.7715 37.5107C85.7715 33.7638 89.0608 31.216 92.6492 31.216C94.4255 31.216 95.9685 31.7184 97.1347 32.9145C97.1347 31.0247 96.3244 29.6252 94.1623 29.6252H88.397V24.0632H94.7275C102.682 24.0632 105.113 28.0792 105.113 35.3367V43.9578H98.1634ZM95.4721 39.5949C95.8462 39.5984 96.213 39.491 96.526 39.2862C96.8391 39.0815 97.0845 38.7885 97.2312 38.4443C97.3779 38.1002 97.4193 37.7203 97.3502 37.3526C97.2811 36.9849 97.1047 36.646 96.8431 36.3785C96.5815 36.1111 96.2465 35.9272 95.8804 35.85C95.5144 35.7728 95.1336 35.8058 94.7863 35.9449C94.439 36.0839 94.1407 36.3228 93.929 36.6313C93.7174 36.9398 93.6019 37.304 93.5972 37.6781C93.5847 37.9283 93.6241 38.1783 93.7129 38.4125C93.8018 38.6466 93.9381 38.8599 94.1134 39.0388C94.2887 39.2177 94.4991 39.3584 94.7313 39.4521C94.9636 39.5457 95.2128 39.5903 95.4631 39.583L95.4721 39.5949Z" fill="url(#paint2_linear_41_246)"/>
<path d="M108.627 43.9578V16.073H116.964V43.9578H108.627Z" fill="url(#paint3_linear_41_246)"/>
<path d="M155.796 43.9578V32.7501C155.796 31.3984 155.449 30.3159 154.214 30.3159C154.014 30.3083 153.815 30.3544 153.638 30.4496C153.461 30.5448 153.313 30.6855 153.209 30.8572V43.9578H144.836V24.0632H152.507L153.161 25.3759C154.127 24.1798 155.593 23.5219 157.871 23.5219C160.727 23.5219 163.972 25.2593 163.972 30.1006V43.9578H155.796Z" fill="url(#paint4_linear_41_246)"/>
<path d="M130.938 23.5219C124.685 23.5219 120.053 27.6157 120.053 34.4097C120.053 40.0465 124.105 44.4841 130.938 44.4841C137.77 44.4841 141.825 40.0465 141.825 34.4097C141.825 27.6157 137.193 23.5219 130.938 23.5219ZM135.058 29.7687C135.656 29.6491 136.254 29.6999 136.691 30.1963C137.127 30.6927 137.139 31.3476 136.954 31.9905C136.895 32.1515 136.827 32.3093 136.751 32.463C136.203 33.378 135.462 34.0209 134.376 34.1465C133.291 34.2721 132.484 33.4647 132.639 32.3523C132.748 31.7334 133.035 31.1596 133.464 30.7008C133.894 30.242 134.448 29.9182 135.058 29.7687ZM130.061 27.7293C130.812 26.9668 131.784 27.1492 132.304 28.0911C132.544 28.5962 132.663 29.1504 132.651 29.7096C132.639 30.2687 132.497 30.8174 132.235 31.3117C131.82 32.1161 131.156 32.5587 130.507 32.466C129.858 32.3733 129.368 31.7842 129.197 30.899C128.967 29.7059 129.197 28.6114 130.061 27.7293ZM125.226 29.9272C125.356 29.7369 125.496 29.5532 125.645 29.377C126.377 28.5726 127.4 28.7221 127.887 29.6939C128.149 30.2777 128.243 30.9232 128.157 31.5573C128.072 32.1914 127.81 32.7889 127.403 33.2823C126.676 34.0837 125.642 33.9611 125.154 32.9833C124.667 32.0055 124.771 30.9648 125.226 29.9272ZM132.684 39.6129C132.573 39.7833 132.466 39.9538 132.349 40.1152C132.083 40.492 131.751 40.821 131.26 40.7402C131 40.7018 130.753 40.5976 130.544 40.4375C130.335 40.2774 130.17 40.0667 130.064 39.8252C129.99 39.6667 129.936 39.4992 129.858 39.3437C129.344 38.327 128.689 38.0071 127.555 38.1835C127.205 38.2625 126.845 38.2857 126.488 38.2523C125.564 38.0908 125.223 37.4269 125.555 36.5478C125.876 35.6144 126.467 34.7973 127.252 34.2C128.038 33.6027 128.983 33.2521 129.969 33.1926C131.395 33.0969 132.238 33.7907 132.827 34.9689C133.566 36.4461 133.512 38.0011 132.684 39.6129ZM138.153 36.3444C137.994 36.8693 137.7 37.3431 137.3 37.7184C136.9 38.0937 136.408 38.3572 135.875 38.4825C134.705 38.7815 133.859 37.9413 134.128 36.7661C134.182 36.5626 134.249 36.3628 134.329 36.168C134.711 35.3902 135.38 34.791 136.195 34.4964C136.793 34.2931 137.37 34.2602 137.863 34.7177C138.357 35.1752 138.339 35.7733 138.153 36.3444Z" fill="url(#paint5_linear_41_246)"/>
<path d="M67.5036 43.5422C68.2525 42.882 69.0524 42.2821 69.8958 41.748C70.7411 41.2157 71.6093 40.7263 72.5004 40.2797C72.9649 40.0465 73.4374 39.8282 73.9178 39.6248C74.3983 39.4215 74.8777 39.2311 75.3562 39.0537L76.3699 37.9024C76.6928 37.5645 77.0337 37.2356 77.3986 36.9156C77.7506 36.6046 78.1558 36.3594 78.5947 36.1919C78.749 36.1478 78.9057 36.1129 79.0642 36.0873C79.2613 36.0508 79.4626 36.0418 79.6622 36.0604C79.8323 36.0711 79.9955 36.1314 80.1317 36.2338C80.2543 36.3325 80.2812 36.497 80.2095 36.7272C80.1936 36.7877 80.1636 36.8436 80.122 36.8904C80.0805 36.9372 80.0285 36.9735 79.9702 36.9963C79.9068 37.023 79.8387 37.0367 79.7699 37.0367C79.7011 37.0367 79.633 37.023 79.5695 36.9963C79.4102 36.9246 79.232 36.9058 79.0612 36.9425C78.8756 36.9813 78.6957 37.0436 78.5259 37.1279C78.3471 37.2185 78.1778 37.3267 78.0205 37.4509C77.8591 37.5735 77.7215 37.6811 77.6168 37.7708C77.4277 37.9081 77.2497 38.06 77.0846 38.2254L76.6031 38.7068C76.8577 38.6333 77.1163 38.5744 77.3776 38.5304C77.6438 38.4885 77.9219 38.4466 78.2059 38.4108C78.6764 38.3575 79.1502 38.3395 79.6234 38.3569C80.1199 38.3758 80.6126 38.4521 81.0916 38.5842C81.5619 38.7126 82.009 38.9144 82.4163 39.1823C82.8179 39.4531 83.1441 39.8214 83.3643 40.2528C83.5766 40.6504 83.6798 41.0972 83.6633 41.5476C83.644 42.0119 83.5584 42.4711 83.4091 42.9112C83.2561 43.3637 83.0557 43.7987 82.811 44.209C82.5698 44.6197 82.3246 44.9935 82.0754 45.3304C80.8985 46.9354 79.4467 48.3193 77.7873 49.4182C76.1462 50.5226 74.3363 51.3528 72.4286 51.8762C71.6432 52.0756 70.8677 52.236 70.1022 52.3576C70.1366 52.554 70.1938 52.7457 70.2726 52.9288C70.3521 53.1082 70.4706 53.2675 70.6195 53.3953C70.6802 53.4362 70.7292 53.4921 70.7617 53.5576C70.7942 53.6232 70.8091 53.696 70.8049 53.7691C70.7992 53.8299 70.7795 53.8885 70.7473 53.9404C70.7152 53.9923 70.6714 54.036 70.6195 54.0681C70.5042 54.1424 70.3674 54.1761 70.2307 54.1638C70.1476 54.1539 70.0677 54.126 69.9964 54.0821C69.9252 54.0382 69.8643 53.9794 69.8181 53.9096C69.6592 53.6993 69.5369 53.4638 69.4562 53.2129C69.375 52.9605 69.3169 52.7013 69.2828 52.4384C68.7834 52.4743 68.281 52.4952 67.7876 52.5072C67.2942 52.5191 66.7679 52.5072 66.2506 52.4653C66.128 52.4653 65.9516 52.4653 65.7034 52.4653C65.4615 52.4561 65.2206 52.4292 64.9827 52.3846C64.7699 52.3507 64.5663 52.2734 64.3847 52.1573C64.3229 52.1133 64.2726 52.0552 64.2379 51.9879C64.2032 51.9205 64.1851 51.8458 64.1851 51.77C64.1851 51.6943 64.2032 51.6196 64.2379 51.5522C64.2726 51.4849 64.3229 51.4268 64.3847 51.3828C64.4421 51.3472 64.5064 51.324 64.5733 51.3148C64.6403 51.3055 64.7084 51.3103 64.7734 51.329C65.0539 51.4169 65.3395 51.4878 65.6286 51.5413C65.9127 51.5951 66.2058 51.64 66.5108 51.6759C66.9609 51.7476 67.4156 51.7876 67.8714 51.7955C68.3349 51.7955 68.7984 51.7955 69.2619 51.7566C69.2993 51.1392 69.4118 50.5287 69.5968 49.9385C69.7822 49.3404 69.9646 48.7972 70.144 48.3087C70.4964 47.3554 70.9028 46.4229 71.3611 45.5158C71.8156 44.6147 72.301 43.7286 72.8174 42.8574C73.0845 42.3769 73.3696 41.9045 73.6726 41.44C73.9756 40.9755 74.2876 40.512 74.6086 40.0495C73.7287 40.3861 72.8716 40.7797 72.0429 41.2276C71.2667 41.6494 70.5249 42.1313 69.8241 42.669C69.6626 42.7946 69.5071 42.9232 69.3546 43.0577C69.2021 43.1923 69.0555 43.3298 68.915 43.4704C68.7617 43.6077 68.6224 43.76 68.4993 43.9249C68.3846 44.0897 68.2344 44.2266 68.0598 44.3256C68.0095 44.3595 67.9523 44.382 67.8923 44.3913C67.8324 44.4006 67.7711 44.3965 67.7129 44.3795C67.604 44.3432 67.5097 44.273 67.4438 44.1791C67.3755 44.087 67.3426 43.9735 67.3511 43.8591C67.3538 43.7988 67.3687 43.7395 67.3949 43.6851C67.4211 43.6306 67.4581 43.582 67.5036 43.5422ZM75.709 39.6547C74.9614 40.6176 74.3066 41.5357 73.7444 42.4088C73.1822 43.282 72.6699 44.1642 72.2073 45.0553C71.7429 45.9803 71.3152 46.9422 70.9245 47.9409C70.5352 48.9298 70.2661 49.9619 70.1231 51.015C70.1041 51.1138 70.0911 51.2137 70.0842 51.314C70.0842 51.4217 70.0693 51.5443 70.0693 51.6878C71.1961 51.5436 72.306 51.2882 73.3825 50.9253C74.469 50.5614 75.5097 50.0727 76.4835 49.469C77.2361 49.0029 77.9554 48.4854 78.6365 47.92C79.3184 47.3527 79.9488 46.7263 80.5205 46.0481C80.7687 45.749 81.0228 45.4171 81.28 45.0613C81.5367 44.7074 81.7694 44.3367 81.9767 43.9518C82.1804 43.569 82.3496 43.1687 82.4821 42.7557C82.615 42.3595 82.6836 41.9446 82.6855 41.5267C82.6952 41.1694 82.5904 40.8184 82.3864 40.5249C82.1872 40.2442 81.9328 40.0072 81.6388 39.8282C81.3306 39.64 80.9974 39.4961 80.649 39.4006C80.3166 39.3085 79.9778 39.2415 79.6353 39.2002C78.9707 39.1658 78.3044 39.1888 77.6438 39.269C76.9898 39.3529 76.3431 39.4858 75.709 39.6667V39.6547Z" fill="#321F23"/>
<path d="M84.743 47.2472C85.1046 47.1015 85.474 46.9757 85.8494 46.8704C86.2321 46.7657 86.6029 46.6581 86.9588 46.5504C87.205 46.4198 87.466 46.3194 87.7363 46.2514C87.8656 46.2126 88.0016 46.2013 88.1355 46.2183C88.2694 46.2353 88.3983 46.2802 88.5138 46.3501C88.5809 46.3965 88.632 46.4624 88.6604 46.5389C88.6887 46.6154 88.6929 46.6987 88.6723 46.7777C88.8058 46.7621 88.94 46.7997 89.046 46.8823C89.1573 46.9858 89.2385 47.1174 89.2811 47.2632C89.3238 47.409 89.3262 47.5636 89.2883 47.7107C89.2113 48.044 89.0757 48.3609 88.8876 48.6466C88.9785 48.7535 89.0866 48.8445 89.2075 48.9158C89.4869 49.0911 89.8142 49.1748 90.1435 49.155C90.4697 49.1389 90.7928 49.0847 91.1064 48.9935C91.2462 48.958 91.3808 48.9048 91.5071 48.835C91.6835 48.7453 91.8659 48.6616 92.0543 48.5808C92.2207 48.5064 92.3954 48.4522 92.5746 48.4194C92.7361 48.3925 92.8408 48.4343 92.8946 48.539C92.9308 48.5936 92.9481 48.6586 92.9437 48.7239C92.9394 48.7893 92.9137 48.8514 92.8707 48.9008C92.7692 49.0062 92.6456 49.0879 92.5088 49.14C92.3563 49.2028 92.2098 49.2626 92.0394 49.3165L91.7194 49.4211C91.4448 49.5129 91.164 49.5848 90.8791 49.6364C90.5921 49.6894 90.3008 49.7164 90.0089 49.7172C89.7283 49.7173 89.4492 49.676 89.1806 49.5946C88.9176 49.5193 88.6785 49.3771 88.4869 49.1819L87.8888 49.7949C87.6605 50.0083 87.4199 50.208 87.1681 50.393C86.9056 50.5873 86.6229 50.7528 86.3248 50.8864C86.0334 51.0199 85.7225 51.1057 85.4038 51.1406C85.0984 51.1755 84.7892 51.1301 84.5067 51.009C84.3606 50.96 84.2278 50.8779 84.1189 50.7689C84.0099 50.6599 83.9277 50.5271 83.8788 50.381C83.8179 50.1085 83.8408 49.8239 83.9445 49.5647C84.0582 49.2694 84.2111 48.9908 84.3991 48.7363C84.5693 48.5001 84.7572 48.2772 84.9613 48.0695L85.4696 47.5611C85.0599 47.7047 84.6592 47.8602 84.2735 48.0426C83.8877 48.225 83.487 48.4074 83.0953 48.6018L82.8321 48.7423C82.7245 48.8051 82.6198 48.8649 82.5122 48.9187C82.416 48.967 82.316 49.007 82.2131 49.0384C82.1705 49.0524 82.1252 49.0559 82.0809 49.0486C82.0367 49.0413 81.9948 49.0235 81.959 48.9965C81.9027 48.9719 81.8564 48.9289 81.8276 48.8746C81.7988 48.8203 81.7893 48.7579 81.8005 48.6975C81.8055 48.6408 81.8252 48.5864 81.8577 48.5397C81.8903 48.493 81.9344 48.4556 81.9859 48.4313L84.743 47.2472ZM85.6401 48.1801L85.2543 48.5808C85.0712 48.7713 84.9051 48.9774 84.7579 49.1969C84.6314 49.3754 84.5457 49.5796 84.5067 49.7949C84.4798 49.9833 84.5905 50.0939 84.8387 50.1298C85.2793 50.2026 85.7301 50.1843 86.1634 50.076C86.586 49.9669 86.9753 49.7554 87.2967 49.46L87.7064 49.0414C87.8342 48.9153 87.943 48.7712 88.0293 48.6137C87.9386 48.3746 87.889 48.1218 87.8828 47.8662C87.8675 47.6187 87.9383 47.3736 88.0832 47.1724C87.6174 47.1991 87.1599 47.3074 86.7315 47.4924C86.342 47.6667 85.9778 47.893 85.649 48.1652L85.6401 48.1801Z" fill="#321F23"/>
<path d="M92.4371 48.4612C92.9006 48.228 93.3551 48.0067 93.8007 47.7914C94.2462 47.5761 94.6977 47.3817 95.1642 47.1933C95.6506 47.0177 96.1507 46.8827 96.6594 46.7896C97.1669 46.7009 97.6812 46.6569 98.1964 46.658C98.3611 46.6473 98.5236 46.6997 98.651 46.8046C98.7586 46.9023 98.7676 47.0667 98.6779 47.298C98.6304 47.383 98.5602 47.4531 98.4752 47.5007C98.3902 47.5482 98.2937 47.5712 98.1964 47.5671C97.7296 47.5312 97.2608 47.5312 96.794 47.5671C96.3291 47.6001 95.8727 47.7081 95.4423 47.8871C95.2837 47.9505 95.1323 48.0307 94.9908 48.1263C94.8317 48.2319 94.6834 48.3532 94.5482 48.4881C94.4217 48.6109 94.3255 48.7614 94.2671 48.9277C94.2409 49.0116 94.2321 49.1 94.2414 49.1875C94.2506 49.2749 94.2777 49.3595 94.321 49.4361C94.3975 49.5896 94.5134 49.72 94.6568 49.814C94.8002 49.9081 94.9661 49.9624 95.1373 49.9713C95.4789 50.0271 95.8278 50.0179 96.166 49.9444C96.3777 49.8969 96.5833 49.8257 96.779 49.7321L97.2605 49.4899C97.3838 49.4259 97.5143 49.3767 97.6492 49.3434C97.7142 49.3322 97.781 49.3373 97.8436 49.3582C97.9062 49.379 97.9627 49.415 98.008 49.463C98.0692 49.5535 98.1031 49.6596 98.1057 49.7688C98.1084 49.878 98.0797 49.9856 98.023 50.079C97.9064 50.3092 97.8137 50.5066 97.7419 50.677L97.3681 51.5592C97.8505 51.0608 98.3579 50.5843 98.8902 50.1298C99.4245 49.6768 99.9968 49.2706 100.601 48.9157C100.654 48.8799 100.726 48.826 100.816 48.7543C100.91 48.6801 101.01 48.6131 101.115 48.5539C101.215 48.4945 101.323 48.4493 101.435 48.4194C101.48 48.4045 101.528 48.4006 101.575 48.4079C101.621 48.4151 101.666 48.4334 101.704 48.4612C101.827 48.5479 101.872 48.6376 101.836 48.7274C101.793 48.8282 101.73 48.919 101.65 48.9935C101.186 49.2447 100.74 49.5118 100.314 49.7949C99.8754 50.0896 99.456 50.4111 99.0577 50.7578C98.5927 51.15 98.1513 51.5694 97.7359 52.0137C97.3204 52.4532 96.9319 52.9176 96.5727 53.4042L95.858 55.022C95.6457 55.5573 95.4304 56.1015 95.2181 56.6517C95.0058 57.2019 94.7725 57.7492 94.5243 58.2814C94.4705 58.3891 94.4017 58.5177 94.324 58.6702C94.2448 58.8191 94.1549 58.9621 94.0548 59.0978C93.9621 59.2269 93.8441 59.3357 93.708 59.4178C93.5759 59.497 93.4214 59.5306 93.2684 59.5135C93.1782 59.5071 93.0915 59.4757 93.0181 59.4229C92.9447 59.3701 92.8874 59.2979 92.8527 59.2144C92.7888 59.0447 92.7703 58.8612 92.7989 58.6822C92.8258 58.4792 92.8708 58.279 92.9335 58.0841C92.9963 57.8867 93.0531 57.7282 93.1069 57.6026C93.4545 56.7847 93.879 56.0017 94.3748 55.2642C94.8742 54.5184 95.4143 53.8006 95.9926 53.1142L96.8897 50.5215C96.5523 50.6141 96.2084 50.681 95.861 50.7219C95.5193 50.762 95.174 50.762 94.8323 50.7219C94.5275 50.6916 94.2317 50.6012 93.9621 50.4558C93.6676 50.2691 93.4501 49.9826 93.3496 49.6487C93.2491 49.3148 93.2723 48.9559 93.4149 48.6376C93.2714 48.7274 93.1159 48.8201 92.9753 48.9187C92.9218 48.9626 92.8589 48.9937 92.7916 49.0098C92.7243 49.0258 92.6542 49.0264 92.5866 49.0114C92.5148 49.0185 92.4429 48.9994 92.3841 48.9576C92.3253 48.9159 92.2836 48.8543 92.2666 48.7842C92.2492 48.7188 92.2571 48.6492 92.2887 48.5894C92.3203 48.5295 92.3733 48.4838 92.4371 48.4612Z" fill="#321F23"/>
<path d="M101.232 48.4612L101.91 48.0725C102.242 47.8841 102.607 47.6957 103.008 47.4983C103.409 47.301 103.812 47.1186 104.225 46.9511C104.563 46.7994 104.924 46.7045 105.293 46.67C105.401 46.6299 105.519 46.6299 105.627 46.67C105.726 46.7047 105.813 46.7645 105.882 46.8435C105.986 47.0229 105.995 47.1604 105.909 47.2591C105.809 47.3647 105.69 47.4509 105.559 47.5133C105.41 47.5877 105.253 47.6458 105.092 47.6867C104.965 47.7069 104.847 47.7677 104.757 47.8602C104.668 47.9678 104.691 48.0665 104.826 48.1592C104.977 48.2577 105.144 48.3305 105.319 48.3745C105.517 48.4283 105.711 48.4762 105.917 48.521C106.047 48.5432 106.173 48.5834 106.291 48.6406C106.573 48.7616 106.798 48.9865 106.919 49.2686C106.949 49.3842 106.954 49.5049 106.933 49.6224C106.913 49.74 106.867 49.8519 106.8 49.9504L107.52 49.5766L109.658 48.4552C109.706 48.4196 109.764 48.3991 109.824 48.3964C109.883 48.3938 109.942 48.409 109.993 48.4403C110.041 48.4734 110.08 48.5183 110.106 48.5707C110.131 48.623 110.143 48.6811 110.14 48.7393C110.138 48.8068 110.116 48.872 110.075 48.9257C110.034 48.9794 109.977 49.0188 109.913 49.0384L109.497 49.2118C109.07 49.4111 108.639 49.6205 108.202 49.8398C107.766 50.059 107.33 50.2913 106.895 50.5365C106.377 50.7857 105.879 51.008 105.4 51.2033C104.94 51.3995 104.444 51.5012 103.944 51.5024C103.591 51.505 103.252 51.371 102.996 51.1286C102.868 51.0253 102.765 50.8952 102.693 50.7473C102.621 50.5995 102.582 50.4377 102.58 50.2734C102.568 50.2051 102.572 50.1351 102.591 50.0683C102.609 50.0016 102.642 49.9399 102.688 49.8876C102.772 49.7925 102.884 49.7265 103.008 49.6992C103.065 49.6855 103.125 49.6842 103.183 49.6956C103.24 49.7069 103.295 49.7306 103.343 49.765C103.395 49.8076 103.437 49.8608 103.467 49.9212C103.497 49.9815 103.514 50.0476 103.516 50.1149C103.511 50.2575 103.554 50.3978 103.64 50.5121C103.725 50.6265 103.847 50.7079 103.986 50.7428C104.31 50.802 104.643 50.7877 104.961 50.701C105.2 50.617 105.429 50.5056 105.642 50.369C105.811 50.2665 105.96 50.1349 106.082 49.9803C106.315 49.7321 106.381 49.5347 106.27 49.3822C106.125 49.2164 105.935 49.0959 105.723 49.0354C105.456 48.9441 105.183 48.8682 104.907 48.8081C104.693 48.7773 104.489 48.6997 104.309 48.5808C104.17 48.4731 104.072 48.3228 104.028 48.1532C104.003 48.0112 104.008 47.8655 104.043 47.7256C103.776 47.8333 103.513 47.9439 103.253 48.0605C102.993 48.1771 102.76 48.2788 102.547 48.3595C102.347 48.4755 102.154 48.6044 101.97 48.7453C101.804 48.8928 101.594 48.982 101.372 48.9995C101.334 49.0096 101.294 49.0114 101.254 49.0047C101.215 48.998 101.178 48.983 101.145 48.9606C101.117 48.9427 101.093 48.919 101.075 48.8912C101.057 48.8633 101.045 48.8319 101.04 48.7991C101.032 48.7314 101.041 48.6627 101.064 48.5988C101.101 48.5336 101.161 48.4845 101.232 48.4612Z" fill="#321F23"/>
<path d="M129.451 43.3837C129.788 43.0785 130.101 42.7475 130.387 42.3939C130.683 42.0311 130.925 41.6284 131.108 41.1977C131.286 40.7829 131.387 40.3391 131.407 39.888C131.422 39.4291 131.319 38.9741 131.108 38.5662C130.927 38.2053 130.672 37.8863 130.36 37.6303C130.049 37.3672 129.667 37.1999 129.263 37.1488C128.886 37.1045 128.506 37.2003 128.195 37.418C127.885 37.6376 127.607 37.8981 127.367 38.1925C127.059 38.5588 126.844 38.9936 126.739 39.4604C126.641 39.9171 126.618 40.3869 126.673 40.8509C126.727 41.3288 126.835 41.7992 126.993 42.2533C127.147 42.6997 127.325 43.137 127.528 43.5631C127.741 43.9907 127.956 44.4093 128.168 44.819C128.38 45.2225 128.567 45.6378 128.73 46.063C128.892 46.487 129.012 46.9256 129.089 47.3728C129.171 47.8448 129.185 48.3261 129.131 48.8021C129.037 49.7257 128.735 50.616 128.249 51.4067C127.754 52.2302 127.126 52.9667 126.392 53.5867C125.657 54.2044 124.82 54.6901 123.919 55.022C123.042 55.3557 122.103 55.4925 121.168 55.4227C120.429 55.3795 119.72 55.1137 119.135 54.6602C118.545 54.2022 118.107 53.5769 117.879 52.866C117.739 52.43 117.667 51.9751 117.666 51.5173C117.665 51.0661 117.724 50.6167 117.84 50.1807C117.958 49.7382 118.119 49.3085 118.321 48.8978C118.523 48.4795 118.76 48.0793 119.03 47.7017C119.286 47.337 119.576 46.9976 119.897 46.688C120.227 46.3663 120.59 46.0797 120.98 45.8327C121.363 45.5832 121.776 45.3823 122.209 45.2347C122.639 45.0932 123.092 45.0304 123.545 45.0493C124.018 45.065 124.482 45.178 124.909 45.3812C125.314 45.5697 125.67 45.8491 125.949 46.1976C126.22 46.5392 126.4 46.9433 126.473 47.3728C126.548 47.8436 126.487 48.3262 126.296 48.7633C126.222 48.8786 126.108 48.9634 125.976 49.0025C125.864 49.0432 125.742 49.0432 125.63 49.0025C125.527 48.9611 125.442 48.8849 125.39 48.7872C125.365 48.7283 125.357 48.6635 125.366 48.6001C125.376 48.5367 125.403 48.4772 125.444 48.4283C125.654 48.0242 125.697 47.554 125.564 47.1186C125.501 46.9036 125.397 46.7031 125.257 46.5286C125.117 46.3541 124.944 46.2091 124.747 46.1019C124.347 45.8783 123.896 45.759 123.438 45.755C122.995 45.755 122.556 45.8361 122.143 45.9942C121.716 46.1578 121.314 46.3781 120.947 46.6491C120.588 46.9143 120.256 47.2148 119.957 47.5462C119.648 47.9107 119.376 48.3043 119.143 48.7214C118.904 49.1416 118.72 49.5908 118.596 50.0581C118.472 50.5145 118.422 50.9882 118.45 51.4605C118.475 51.9301 118.597 52.3894 118.809 52.8092C118.997 53.2218 119.281 53.5837 119.637 53.8648C119.968 54.1209 120.351 54.3034 120.758 54.4C121.183 54.4992 121.621 54.5305 122.056 54.4927C122.506 54.4587 122.95 54.3693 123.378 54.2266C124.311 53.9489 125.181 53.4952 125.944 52.8899C126.684 52.3143 127.302 51.5966 127.762 50.7787C128.208 49.9749 128.46 49.0778 128.497 48.1592C128.531 47.1709 128.296 46.1919 127.815 45.3274C127.582 44.8818 127.349 44.4303 127.107 43.9787C126.871 43.5317 126.661 43.0714 126.479 42.6002C126.299 42.1339 126.165 41.6511 126.078 41.1589C125.988 40.6466 125.97 40.1242 126.024 39.6069C126.063 39.1307 126.186 38.665 126.386 38.2313C126.581 37.7858 126.857 37.3802 127.199 37.0352C127.525 36.7033 127.923 36.4515 128.363 36.2996C128.826 36.1441 129.328 36.1441 129.792 36.2996C130.266 36.4275 130.696 36.6818 131.036 37.0352C131.359 37.3725 131.609 37.7725 131.772 38.2104C131.933 38.6603 132.014 39.135 132.011 39.6129C132.014 40.0917 131.95 40.5687 131.822 41.0303C131.679 41.5074 131.478 41.9653 131.224 42.3939C130.97 42.8266 130.694 43.2458 130.396 43.6498C130.299 43.8029 130.186 43.9461 130.061 44.0774C130.001 44.1463 129.919 44.192 129.829 44.2067C129.739 44.2215 129.647 44.2043 129.568 44.1582C129.488 44.1442 129.414 44.1035 129.36 44.0427C129.306 43.9819 129.274 43.9046 129.269 43.8232C129.259 43.7405 129.271 43.6566 129.303 43.5797C129.335 43.5027 129.386 43.4352 129.451 43.3837Z" fill="#321F23"/>
<path d="M132.98 45.1539C133.3 45.1719 133.62 45.1779 133.943 45.1689C134.266 45.1599 134.583 45.139 134.903 45.1031C135.401 44.3336 135.94 43.5362 136.52 42.7108C137.068 41.9197 137.73 41.2143 138.485 40.6176C138.626 40.5279 138.784 40.4412 138.925 40.3515C139.068 40.2647 139.228 40.2097 139.394 40.19C139.474 40.1863 139.554 40.2043 139.624 40.2422C139.695 40.2801 139.754 40.3365 139.795 40.4053C139.839 40.4716 139.866 40.5472 139.876 40.6262C139.885 40.7051 139.876 40.7851 139.849 40.8598C139.738 41.2472 139.532 41.6008 139.251 41.8885C138.952 42.2174 138.688 42.5165 138.476 42.7856C138.211 43.1405 137.93 43.4883 137.633 43.8292C137.336 44.1701 137.037 44.4991 136.736 44.816L138.312 44.4422L140.958 43.6408C141.083 43.5875 141.213 43.5474 141.347 43.5212C141.417 43.5102 141.489 43.5209 141.553 43.5519C141.617 43.5828 141.671 43.6327 141.706 43.6947C141.757 43.7543 141.791 43.8264 141.805 43.9036C141.819 43.9808 141.813 44.0603 141.786 44.1342C141.762 44.2034 141.723 44.2663 141.671 44.3181C141.619 44.3699 141.557 44.4093 141.487 44.4333C140.651 44.7224 139.793 44.9463 138.922 45.1031C138.031 45.2626 137.157 45.3962 136.302 45.5038L135.928 45.5816C135.713 45.7789 135.492 45.9733 135.258 46.1796C135.025 46.386 134.789 46.5714 134.538 46.7777C134.415 46.9504 134.308 47.1335 134.218 47.3249C134.128 47.5103 134.038 47.7047 133.952 47.8991C133.884 48.0264 133.829 48.1608 133.79 48.2998C133.718 48.5151 133.653 48.7334 133.59 48.9546C133.527 49.1759 133.479 49.3823 133.443 49.5527C133.407 49.7232 133.416 49.8338 133.47 49.8338C133.873 49.9227 134.293 49.8999 134.684 49.768C135.121 49.6334 135.501 49.5228 135.821 49.4331L137.05 49.0055C137.459 48.8649 137.869 48.7064 138.279 48.527C138.414 48.4855 138.553 48.4584 138.694 48.4463C138.862 48.4283 138.94 48.536 138.922 48.7663C138.904 48.9277 138.793 49.0384 138.587 49.1012C138.419 49.1502 138.255 49.2081 138.093 49.2746L136.194 49.9684L135.297 50.3422C134.924 50.5002 134.539 50.6301 134.146 50.7309C133.807 50.8262 133.45 50.8396 133.105 50.7698C132.946 50.7261 132.804 50.6328 132.701 50.5032C132.597 50.3736 132.538 50.2146 132.531 50.0491C132.496 49.6304 132.575 49.21 132.759 48.832C132.944 48.4333 133.162 48.0017 133.413 47.5372C132.595 48.0888 131.738 48.5795 130.848 49.0055C130.808 49.0308 130.763 49.0464 130.716 49.0511C130.67 49.0558 130.622 49.0494 130.579 49.0324C130.511 48.9973 130.455 48.9419 130.42 48.8739C130.39 48.8011 130.39 48.7194 130.42 48.6466C130.452 48.5613 130.514 48.4903 130.594 48.4463C131.218 48.1592 131.816 47.8472 132.388 47.5103C132.973 47.1673 133.539 46.7929 134.083 46.3889L134.457 45.746C134.191 45.764 133.898 45.7999 133.575 45.8537C133.315 45.9139 133.042 45.8855 132.8 45.7729C132.734 45.7399 132.682 45.6834 132.655 45.6143C132.628 45.5452 132.628 45.4685 132.654 45.3991C132.667 45.3246 132.708 45.2579 132.769 45.2123C132.829 45.1668 132.905 45.146 132.98 45.1539ZM137.815 42.6152C137.909 42.4874 137.994 42.3536 138.069 42.2144C138.15 42.0739 138.234 41.9304 138.324 41.7868C138.147 41.9663 137.983 42.1457 137.83 42.3221C137.678 42.4985 137.549 42.6421 137.441 42.7497C137.12 43.1046 136.809 43.4654 136.508 43.8322C136.203 44.1991 135.925 44.5879 135.677 44.9955C136.47 44.2747 137.187 43.474 137.815 42.6062V42.6152Z" fill="#321F23"/>
<path d="M138.539 48.4613L139.352 48.0456C139.681 47.8751 140.034 47.7107 140.408 47.5522C140.782 47.3937 141.143 47.2532 141.49 47.0977C141.837 46.9422 142.127 46.8405 142.36 46.7508C142.483 46.697 142.707 46.6162 143.027 46.5086C143.347 46.4009 143.685 46.3052 144.044 46.2095C144.373 46.1249 144.708 46.062 145.046 46.0211C145.276 45.9736 145.515 46.0019 145.728 46.1019C145.94 46.2992 145.982 46.4757 145.847 46.6372C145.724 46.7925 145.549 46.8986 145.354 46.9362L144.158 47.0708C143.939 47.13 143.728 47.2153 143.53 47.3249C143.362 47.4246 143.171 47.5442 142.956 47.6838C142.866 47.7555 142.71 47.9021 142.489 48.1263C142.259 48.3553 142.04 48.5958 141.834 48.847C141.639 49.0779 141.469 49.3285 141.326 49.5946C141.2 49.8368 141.2 50.0102 141.326 50.1179C141.403 50.1657 141.49 50.1954 141.58 50.2047C141.67 50.214 141.761 50.2028 141.846 50.1717C142.098 50.1146 142.345 50.0335 142.582 49.9295C142.833 49.8219 143.063 49.7112 143.278 49.5946C143.425 49.5196 143.567 49.4357 143.703 49.3434C144.167 49.0638 144.591 48.7217 144.962 48.3267C144.99 48.2857 145.026 48.2511 145.069 48.2252C145.111 48.1993 145.158 48.1827 145.207 48.1765C145.257 48.1702 145.307 48.1746 145.354 48.1891C145.401 48.2037 145.445 48.2281 145.482 48.2609C145.571 48.3175 145.636 48.4032 145.668 48.5031C145.7 48.6031 145.695 48.711 145.656 48.8081C145.621 48.929 145.556 49.0391 145.467 49.1281L145.213 49.3823C145.124 49.4791 145.056 49.5931 145.013 49.7172C144.944 49.8398 144.926 49.9355 144.962 49.9953C144.981 50.0286 145.008 50.057 145.04 50.0782C145.073 50.0995 145.109 50.1131 145.147 50.1179C145.46 50.1507 145.776 50.1325 146.083 50.0641C146.476 49.9866 146.865 49.8867 147.247 49.765C147.653 49.6414 148.053 49.4947 148.443 49.3255C148.834 49.155 149.175 48.9995 149.459 48.859C149.566 48.825 149.667 48.7746 149.759 48.7094C149.881 48.6313 150.012 48.5652 150.147 48.5121C150.269 48.4608 150.4 48.4334 150.533 48.4314C150.589 48.4282 150.644 48.4416 150.692 48.4698C150.74 48.498 150.778 48.5398 150.802 48.5898C150.838 48.6322 150.857 48.6867 150.854 48.7423C150.851 48.7979 150.827 48.8503 150.787 48.8889C150.694 48.9876 150.581 49.0652 150.455 49.1161C150.312 49.1759 150.156 49.2357 150.028 49.2896C149.899 49.3434 149.776 49.3853 149.705 49.4211C149.406 49.5647 149.107 49.7022 148.808 49.8368L147.839 50.2375C147.623 50.3272 147.393 50.4349 147.142 50.5605C146.891 50.6847 146.633 50.7916 146.367 50.8804C146.103 50.9686 145.831 51.0307 145.554 51.0658C145.297 51.1034 145.035 51.0767 144.792 50.9881C144.667 50.9508 144.553 50.8836 144.459 50.7925C144.366 50.7013 144.296 50.5889 144.256 50.4648C144.203 50.2303 144.212 49.9858 144.283 49.7561L143.563 50.1837L142.615 50.7339C142.298 50.915 141.946 51.0281 141.583 51.0658C141.282 51.0894 140.982 51.0149 140.728 50.8535C140.604 50.7716 140.503 50.6605 140.433 50.5301C140.364 50.3996 140.327 50.2539 140.327 50.1059C140.345 49.8651 140.419 49.6318 140.542 49.4241C140.7 49.1241 140.883 48.838 141.09 48.5689C141.312 48.2774 141.558 48.0044 141.825 47.7525C142.049 47.535 142.301 47.3471 142.573 47.1934C142.368 47.2596 142.168 47.3395 141.975 47.4326C141.7 47.5582 141.377 47.7077 141.039 47.8871C140.701 48.0665 140.327 48.2489 139.944 48.4343L138.889 48.9547C138.849 48.9806 138.805 48.9978 138.759 49.005C138.712 49.0123 138.665 49.0094 138.62 48.9965C138.54 48.9751 138.469 48.9277 138.419 48.862C138.376 48.8001 138.358 48.7243 138.368 48.6496C138.379 48.6066 138.4 48.5669 138.43 48.5341C138.46 48.5012 138.497 48.4762 138.539 48.4613Z" fill="#321F23"/>
<path d="M150.324 48.4433L151.433 47.8452C151.798 47.6459 152.197 47.4236 152.629 47.1784C152.612 47.0061 152.63 46.8321 152.682 46.6667C152.733 46.5014 152.817 46.3479 152.928 46.2155C153.034 46.0725 153.174 45.9584 153.336 45.8837C153.497 45.809 153.675 45.776 153.852 45.7879C153.96 45.7952 154.064 45.8347 154.149 45.9014C154.234 45.968 154.298 46.0587 154.331 46.1617C154.366 46.2649 154.375 46.3754 154.357 46.483C154.339 46.5907 154.294 46.692 154.226 46.7777C154.08 46.9939 153.888 47.1756 153.664 47.31C153.803 47.3854 153.96 47.4225 154.119 47.4176C154.521 47.4493 154.925 47.3804 155.294 47.2173C155.672 47.0627 156.038 46.8797 156.388 46.67C156.711 46.5624 156.914 46.5983 157.004 46.7777C157.046 46.8841 157.058 46.9998 157.039 47.1126C157.02 47.2253 156.971 47.3307 156.897 47.4176C156.807 47.5612 156.707 47.7436 156.597 47.9648C156.482 48.1847 156.382 48.4125 156.298 48.6466C156.221 48.8619 156.176 49.0878 156.167 49.3165C156.158 49.4105 156.171 49.5054 156.206 49.5932C156.241 49.6811 156.296 49.7594 156.367 49.8218C156.454 49.9295 156.69 49.9295 157.073 49.8218C157.456 49.7142 157.97 49.5228 158.61 49.2896C158.825 49.1998 159.044 49.0982 159.265 48.9905C159.486 48.8829 159.716 48.7633 159.947 48.6556C160.031 48.6234 160.112 48.5834 160.189 48.536C160.282 48.4784 160.383 48.4332 160.488 48.4014C160.576 48.3744 160.669 48.3744 160.757 48.4014C160.838 48.4283 160.877 48.524 160.877 48.6825C160.876 48.7292 160.865 48.7751 160.844 48.817C160.823 48.8589 160.794 48.8957 160.757 48.9247C160.674 48.9956 160.584 49.0578 160.488 49.1101C160.392 49.1637 160.292 49.2088 160.189 49.2447L159.947 49.3254L158.825 49.8308L158.087 50.2375C157.799 50.396 157.499 50.531 157.19 50.6412C156.906 50.7426 156.608 50.7961 156.307 50.7997C156.175 50.804 156.044 50.7744 155.927 50.7137C155.81 50.6529 155.71 50.5631 155.638 50.4528C155.55 50.3302 155.495 50.187 155.479 50.0371C155.457 49.8875 155.457 49.7353 155.479 49.5856C155.506 49.4321 155.542 49.2804 155.587 49.1311C155.632 48.9786 155.67 48.832 155.706 48.6885L155.922 47.7914C155.832 47.8093 155.65 47.8542 155.371 47.926C155.077 48.0003 154.777 48.0494 154.474 48.0725C154.168 48.1041 153.86 48.1041 153.553 48.0725C153.426 48.0643 153.301 48.0288 153.188 47.9685C153.075 47.9081 152.976 47.8243 152.898 47.7226L152.148 48.1233C151.949 48.231 151.749 48.3476 151.55 48.4732L151.056 48.7722C150.923 48.8216 150.797 48.889 150.683 48.9726C150.634 49.0208 150.571 49.051 150.503 49.0581C150.435 49.0651 150.366 49.0487 150.309 49.0115C150.257 48.981 150.215 48.9371 150.186 48.8844C150.158 48.8317 150.144 48.7722 150.147 48.7124C150.145 48.6547 150.16 48.5977 150.192 48.5494C150.224 48.5011 150.27 48.464 150.324 48.4433Z" fill="#321F23"/>
<defs>
<linearGradient id="paint0_linear_41_246" x1="16.1656" y1="49.8756" x2="47.887" y2="18.1543" gradientUnits="userSpaceOnUse">
<stop offset="0.26" stop-color="#F8AD16"/>
<stop offset="1" stop-color="#FFCF02"/>
</linearGradient>
<linearGradient id="paint1_linear_41_246" x1="71.8367" y1="44.4841" x2="71.8367" y2="16.073" gradientUnits="userSpaceOnUse">
<stop offset="0.03" stop-color="#F8AD16"/>
<stop offset="1" stop-color="#FFCF02"/>
</linearGradient>
<linearGradient id="paint2_linear_41_246" x1="95.4422" y1="44.4841" x2="95.4422" y2="24.0632" gradientUnits="userSpaceOnUse">
<stop offset="0.03" stop-color="#F8AD16"/>
<stop offset="1" stop-color="#FFCF02"/>
</linearGradient>
<linearGradient id="paint3_linear_41_246" x1="112.795" y1="43.9458" x2="112.795" y2="16.073" gradientUnits="userSpaceOnUse">
<stop offset="0.03" stop-color="#F8AD16"/>
<stop offset="1" stop-color="#FFCF02"/>
</linearGradient>
<linearGradient id="paint4_linear_41_246" x1="154.408" y1="43.9458" x2="154.408" y2="23.5219" gradientUnits="userSpaceOnUse">
<stop offset="0.03" stop-color="#F8AD16"/>
<stop offset="1" stop-color="#FFCF02"/>
</linearGradient>
<linearGradient id="paint5_linear_41_246" x1="130.938" y1="44.4841" x2="130.938" y2="23.5219" gradientUnits="userSpaceOnUse">
<stop offset="0.03" stop-color="#F8AD16"/>
<stop offset="1" stop-color="#FFCF02"/>
</linearGradient>
</defs>
</svg>
